#N canvas 827 239 527 327 12;
#X obj 88 71 oscparse;
#X obj 88 180 print TEST;
#X obj 173 180 print NOTE;
#X obj 88 102 list trim;
#X obj 88 42 netreceive -u -b 8000;
#X obj 88 133 route test note params;
#X obj 261 180 print PARAMS;
#X obj 371 182 print OTHER;
#X connect 0 0 3 0;
#X connect 3 0 5 0;
#X connect 4 0 0 0;
#X connect 5 0 1 0;
#X connect 5 1 2 0;
#X connect 5 2 6 0;
#X connect 5 3 7 0;
