#N canvas 827 239 527 327 12;
#X obj 606 61 soundfiler;
#N canvas 0 0 450 250 (subpatch) 0;
#X array track1 250000 float 2;
#X coords 0 1 250000 -1 199 61 1;
#X restore 17 23 graph;
#N canvas 0 0 450 250 (subpatch) 0;
#X array track2 230000 float 2;
#X coords 0 1 230000 -1 199 61 1;
#X restore 17 102 graph;
#X msg 606 31 read \$1 track1;
#X msg 233 31 symbol ./vocal_samples/SC_VH_66_vocals_harmonies_chordss_vintage_pop_Dmin.wav, f 50;
#X obj 17 794 tabplay~ track1;
#X obj 17 716 bng 25 250 50 0 empty empty empty 17 7 0 10 #e4e4e4 #4d4d4d #373737;
#X obj 1251 564 dac~;
#X obj 1340 533 knob 50 0 1 0 0 empty empty #E4E4E4 #B7B7B7 #4D4D4D 1 0 0 0 1 270 0 0 0;
#X obj 1238 533 *~;
#X obj 1280 533 *~;
#X msg 92 716 stop;
#X floatatom 684 61 7 0 0 0 - - - 12;
#X obj 47 859 line~;
#X obj 17 897 *~;
#X msg 119 831 1 \, 0 50;
#X msg 47 831 0 \, 1 100;
#X obj 606 143 soundfiler;
#X floatatom 684 143 7 0 0 0 - - - 12;
#X msg 233 113 symbol ./vocal_samples/SC_VH_68_vocals_harmonies_classical_chorale_Dmin.wav, f 50;
#X msg 606 113 read \$1 track2;
#X obj 745 31 unpack f f f f;
#X floatatom 745 61 7 0 0 0 - - - 12;
#X floatatom 801 61 7 0 0 0 - - - 12;
#X floatatom 860 61 7 0 0 0 - - - 12;
#X floatatom 919 61 7 0 0 0 - - - 12;
#X obj 745 113 unpack f f f f;
#X floatatom 745 143 7 0 0 0 - - - 12;
#X floatatom 801 143 7 0 0 0 - - - 12;
#X floatatom 860 143 7 0 0 0 - - - 12;
#X floatatom 919 143 7 0 0 0 - - - 12;
#X obj 209 716 bng 25 250 50 0 empty empty empty 17 7 0 10 #e4e4e4 #4d4d4d #373737;
#X msg 280 716 stop;
#X obj 209 897 *~;
#X msg 317 831 1 \, 0 50;
#X msg 239 831 0 \, 1 100;
#X obj 209 794 tabplay~ track2;
#X obj 1177 314 receive~ out1;
#X obj 1210 341 receive~ out2;
#X obj 209 955 send~ out2;
#X obj 17 955 send~ out1;
#X obj 280 757 del 50;
#X obj 239 859 line~;
#X obj 317 794 bng 25 250 50 0 empty empty empty 17 7 0 10 #e4e4e4 #4d4d4d #373737;
#X obj 126 794 bng 25 250 50 0 empty empty empty 17 7 0 10 #e4e4e4 #4d4d4d #373737;
#X obj 92 759 del 50;
#X obj 1058 58 metro, f 9;
#X floatatom 1099 20 5 0 0 0 - - - 12;
#X obj 1058 150 hradio 20 1 0 32 empty empty empty 0 -8 0 10 #e4e4e4 #4d4d4d #373737 0;
#X obj 1101 89 + 1;
#X obj 1058 89 float;
#X obj 1058 119 mod 32;
#X obj 1058 20 tgl 25 0 empty empty empty 17 7 0 10 #e4e4e4 #4d4d4d #373737 0 1;
#N canvas 0 0 450 250 (subpatch) 0;
#X array track3 900000 float 2;
#X coords 0 1 900000 -1 199 61 1;
#X restore 16 183 graph;
#X obj 605 224 soundfiler;
#X floatatom 683 224 7 0 0 0 - - - 12;
#X obj 744 194 unpack f f f f;
#X floatatom 744 224 7 0 0 0 - - - 12;
#X floatatom 800 224 7 0 0 0 - - - 12;
#X floatatom 859 224 7 0 0 0 - - - 12;
#X floatatom 918 224 7 0 0 0 - - - 12;
#N canvas 0 0 450 250 (subpatch) 0;
#X array track4 450000 float 2;
#X coords 0 1 450000 -1 199 61 1;
#X restore 18 265 graph;
#X obj 607 306 soundfiler;
#X floatatom 685 306 7 0 0 0 - - - 12;
#X obj 746 276 unpack f f f f;
#X floatatom 746 306 7 0 0 0 - - - 12;
#X floatatom 802 306 7 0 0 0 - - - 12;
#X floatatom 861 306 7 0 0 0 - - - 12;
#X floatatom 920 306 7 0 0 0 - - - 12;
#N canvas 0 0 450 250 (subpatch) 0;
#X array track5 210000 float 2;
#X coords 0 1 210000 -1 199 61 1;
#X restore 18 349 graph;
#X obj 607 390 soundfiler;
#X floatatom 685 390 7 0 0 0 - - - 12;
#X obj 746 360 unpack f f f f;
#X floatatom 746 390 7 0 0 0 - - - 12;
#X floatatom 802 390 7 0 0 0 - - - 12;
#X floatatom 861 390 7 0 0 0 - - - 12;
#X floatatom 920 390 7 0 0 0 - - - 12;
#N canvas 0 0 450 250 (subpatch) 0;
#X array track6 400000 float 2;
#X coords 0 1 400000 -1 199 61 1;
#X restore 17 429 graph;
#X obj 606 470 soundfiler;
#X floatatom 684 470 7 0 0 0 - - - 12;
#X obj 745 440 unpack f f f f;
#X floatatom 745 470 7 0 0 0 - - - 12;
#X floatatom 801 470 7 0 0 0 - - - 12;
#X floatatom 860 470 7 0 0 0 - - - 12;
#X floatatom 919 470 7 0 0 0 - - - 12;
#X msg 232 194 symbol ./vocal_samples/SC_VH_86_vocals_harmonies_single_melody_Dmin.wav, f 50;
#X msg 605 194 read \$1 track3;
#X msg 234 276 symbol ./vocal_samples/SC_VH_97_vocals_harmonies_vintage_Brazil_Dmin.wav, f 50;
#X msg 607 276 read \$1 track4;
#X msg 607 360 read \$1 track5;
#X msg 606 440 read \$1 track6;
#X msg 234 360 symbol ./vocal_samples/SC_VH_100_vocals_harmonies_vintage_halloween_Dmin.wav, f 50;
#X msg 233 440 symbol ./vocal_samples/SC_VH_111_vocals_rhythmic_melody_Dmin.wav, f 50;
#N canvas 0 0 450 250 (subpatch) 0;
#X array track7 700000 float 2;
#X coords 0 1 700000 -1 199 61 1;
#X restore 17 506 graph;
#X obj 606 547 soundfiler;
#X floatatom 684 547 7 0 0 0 - - - 12;
#X obj 745 517 unpack f f f f;
#X floatatom 745 547 7 0 0 0 - - - 12;
#X floatatom 801 547 7 0 0 0 - - - 12;
#X floatatom 860 547 7 0 0 0 - - - 12;
#X floatatom 919 547 7 0 0 0 - - - 12;
#X msg 606 517 read \$1 track7;
#X msg 233 517 symbol ./vocal_samples/SC_VH_118_vocals_harmonies_chorale_Dmin.wav, f 50;
#X obj 396 705 bng 25 250 50 0 empty empty empty 17 7 0 10 #e4e4e4 #4d4d4d #373737;
#X msg 472 717 stop;
#X obj 386 882 *~;
#X msg 494 826 1 \, 0 50;
#X msg 416 826 0 \, 1 100;
#X obj 472 750 del 50;
#X obj 416 854 line~;
#X obj 494 789 bng 25 250 50 0 empty empty empty 17 7 0 10 #e4e4e4 #4d4d4d #373737;
#X obj 577 711 bng 25 250 50 0 empty empty empty 17 7 0 10 #e4e4e4 #4d4d4d #373737;
#X msg 663 723 stop;
#X obj 577 892 *~;
#X msg 685 826 1 \, 0 50;
#X msg 607 826 0 \, 1 100;
#X obj 663 757 del 50;
#X obj 607 854 line~;
#X obj 685 789 bng 25 250 50 0 empty empty empty 17 7 0 10 #e4e4e4 #4d4d4d #373737;
#X obj 774 693 bng 25 250 50 0 empty empty empty 17 7 0 10 #e4e4e4 #4d4d4d #373737;
#X msg 851 709 stop;
#X obj 771 892 *~;
#X msg 879 826 1 \, 0 50;
#X msg 801 826 0 \, 1 100;
#X obj 851 745 del 50;
#X obj 801 854 line~;
#X obj 879 789 bng 25 250 50 0 empty empty empty 17 7 0 10 #e4e4e4 #4d4d4d #373737;
#X obj 968 709 bng 25 250 50 0 empty empty empty 17 7 0 10 #e4e4e4 #4d4d4d #373737;
#X msg 1039 709 stop;
#X obj 968 890 *~;
#X msg 1076 824 1 \, 0 50;
#X msg 998 824 0 \, 1 100;
#X obj 1039 755 del 50;
#X obj 998 852 line~;
#X obj 1076 787 bng 25 250 50 0 empty empty empty 17 7 0 10 #e4e4e4 #4d4d4d #373737;
#X obj 1157 683 bng 25 250 50 0 empty empty empty 17 7 0 10 #e4e4e4 #4d4d4d #373737;
#X msg 1232 708 stop;
#X obj 1157 883 *~;
#X msg 1265 823 1 \, 0 50;
#X msg 1187 823 0 \, 1 100;
#X obj 1232 754 del 50;
#X obj 1187 851 line~;
#X obj 1265 786 bng 25 250 50 0 empty empty empty 17 7 0 10 #e4e4e4 #4d4d4d #373737;
#X obj 386 949 send~ out3;
#X obj 386 789 tabplay~ track3;
#X obj 577 789 tabplay~ track4;
#X obj 577 949 send~ out4;
#X obj 771 789 tabplay~ track5;
#X obj 771 949 send~ out5;
#X obj 968 787 tabplay~ track6;
#X obj 968 949 send~ out6;
#X obj 1157 786 tabplay~ track7;
#X obj 1157 949 send~ out7;
#X obj 1234 371 receive~ out3;
#X obj 1261 401 receive~ out4;
#X obj 1276 434 receive~ out5;
#X obj 1295 462 receive~ out6;
#X obj 1318 494 receive~ out7;
#X obj 745 714 vsl 17 128 0 0.5 0 0 empty empty empty 0 -9 0 10 #e4e4e4 #4d4d4d #373737 0 1;
#X obj 577 919 *~;
#X obj 771 918 *~;
#X obj 936 711 vsl 17 128 0 0.3 0 0 empty empty empty 0 -9 0 10 #e4e4e4 #4d4d4d #373737 0 1;
#X obj 17 601 loadbang;
#X obj 17 924 *~;
#X obj 178 752 vsl 17 128 0 0.3 0 0 empty empty empty 0 -9 0 10 #e4e4e4 #4d4d4d #373737 0 1;
#X msg 17 752 0 204500, f 9;
#X obj 209 924 *~;
#X obj 360 719 vsl 17 128 0 0.3 0 0 empty empty empty 0 -9 0 10 #e4e4e4 #4d4d4d #373737 0 1;
#X msg 209 750 0 204500, f 9;
#X obj 386 919 *~;
#X obj 551 713 vsl 17 128 0 0.3 0 0 empty empty empty 0 -9 0 10 #e4e4e4 #4d4d4d #373737 0 1;
#X msg 396 740 0 300000, f 9;
#X msg 774 730 2000 350000, f 9;
#X msg 577 742 2000 365000, f 9;
#X obj 968 918 *~;
#X obj 1135 747 vsl 17 128 0 0.3 0 0 empty empty empty 0 -9 0 10 #e4e4e4 #4d4d4d #373737 0 1;
#X msg 968 740 2000 188000, f 9;
#X obj 1157 918 *~;
#X obj 1332 712 vsl 17 128 0 0.3 0 0 empty empty empty 0 -9 0 10 #e4e4e4 #4d4d4d #373737 0 1;
#X obj 1157 715 del 100;
#X msg 1157 745 0, f 9;
#X connect 0 0 12 0;
#X connect 0 1 21 0;
#X connect 3 0 0 0;
#X connect 4 0 3 0;
#X connect 5 0 14 0;
#X connect 5 1 6 0;
#X connect 6 0 16 0;
#X connect 6 0 165 0;
#X connect 8 0 10 1;
#X connect 8 0 9 1;
#X connect 9 0 7 0;
#X connect 10 0 7 1;
#X connect 11 0 45 0;
#X connect 11 0 44 0;
#X connect 13 0 14 1;
#X connect 14 0 163 0;
#X connect 15 0 13 0;
#X connect 16 0 13 0;
#X connect 17 0 18 0;
#X connect 17 1 26 0;
#X connect 19 0 20 0;
#X connect 20 0 17 0;
#X connect 21 0 22 0;
#X connect 21 1 23 0;
#X connect 21 2 24 0;
#X connect 21 3 25 0;
#X connect 26 0 27 0;
#X connect 26 1 28 0;
#X connect 26 2 29 0;
#X connect 26 3 30 0;
#X connect 31 0 35 0;
#X connect 31 0 168 0;
#X connect 32 0 41 0;
#X connect 32 0 43 0;
#X connect 33 0 166 0;
#X connect 34 0 42 0;
#X connect 35 0 42 0;
#X connect 36 0 33 0;
#X connect 36 1 31 0;
#X connect 37 0 9 0;
#X connect 37 0 10 0;
#X connect 38 0 9 0;
#X connect 38 0 10 0;
#X connect 41 0 36 0;
#X connect 42 0 33 1;
#X connect 43 0 34 0;
#X connect 44 0 15 0;
#X connect 45 0 5 0;
#X connect 46 0 50 0;
#X connect 47 0 46 1;
#X connect 48 0 112 0;
#X connect 48 0 128 0;
#X connect 48 0 136 0;
#X connect 48 0 11 0;
#X connect 49 0 50 1;
#X connect 50 0 49 0;
#X connect 50 0 51 0;
#X connect 51 0 48 0;
#X connect 52 0 46 0;
#X connect 54 0 55 0;
#X connect 54 1 56 0;
#X connect 56 0 57 0;
#X connect 56 1 58 0;
#X connect 56 2 59 0;
#X connect 56 3 60 0;
#X connect 62 0 63 0;
#X connect 62 1 64 0;
#X connect 64 0 65 0;
#X connect 64 1 66 0;
#X connect 64 2 67 0;
#X connect 64 3 68 0;
#X connect 70 0 71 0;
#X connect 70 1 72 0;
#X connect 72 0 73 0;
#X connect 72 1 74 0;
#X connect 72 2 75 0;
#X connect 72 3 76 0;
#X connect 78 0 79 0;
#X connect 78 1 80 0;
#X connect 80 0 81 0;
#X connect 80 1 82 0;
#X connect 80 2 83 0;
#X connect 80 3 84 0;
#X connect 85 0 86 0;
#X connect 86 0 54 0;
#X connect 87 0 88 0;
#X connect 88 0 62 0;
#X connect 89 0 70 0;
#X connect 90 0 78 0;
#X connect 91 0 89 0;
#X connect 92 0 90 0;
#X connect 94 0 95 0;
#X connect 94 1 96 0;
#X connect 96 0 97 0;
#X connect 96 1 98 0;
#X connect 96 2 99 0;
#X connect 96 3 100 0;
#X connect 101 0 94 0;
#X connect 102 0 101 0;
#X connect 103 0 107 0;
#X connect 103 0 171 0;
#X connect 104 0 108 0;
#X connect 104 0 110 0;
#X connect 105 0 169 0;
#X connect 106 0 109 0;
#X connect 107 0 109 0;
#X connect 108 0 144 0;
#X connect 109 0 105 1;
#X connect 110 0 106 0;
#X connect 111 0 115 0;
#X connect 111 0 173 0;
#X connect 112 0 116 0;
#X connect 112 0 118 0;
#X connect 113 0 159 0;
#X connect 114 0 117 0;
#X connect 115 0 117 0;
#X connect 116 0 145 0;
#X connect 117 0 113 1;
#X connect 118 0 114 0;
#X connect 119 0 172 0;
#X connect 119 0 123 0;
#X connect 120 0 124 0;
#X connect 120 0 126 0;
#X connect 121 0 160 0;
#X connect 122 0 125 0;
#X connect 123 0 125 0;
#X connect 124 0 147 0;
#X connect 125 0 121 1;
#X connect 126 0 122 0;
#X connect 127 0 131 0;
#X connect 127 0 176 0;
#X connect 128 0 132 0;
#X connect 128 0 134 0;
#X connect 129 0 174 0;
#X connect 130 0 133 0;
#X connect 131 0 133 0;
#X connect 132 0 149 0;
#X connect 133 0 129 1;
#X connect 134 0 130 0;
#X connect 135 0 139 0;
#X connect 135 0 179 0;
#X connect 136 0 140 0;
#X connect 136 0 142 0;
#X connect 137 0 177 0;
#X connect 138 0 141 0;
#X connect 139 0 141 0;
#X connect 140 0 151 0;
#X connect 141 0 137 1;
#X connect 142 0 138 0;
#X connect 144 0 105 0;
#X connect 144 1 103 0;
#X connect 145 0 113 0;
#X connect 145 1 111 0;
#X connect 147 0 121 0;
#X connect 147 1 119 0;
#X connect 149 0 129 0;
#X connect 149 1 127 0;
#X connect 151 0 137 0;
#X connect 151 1 135 0;
#X connect 153 0 9 0;
#X connect 153 0 10 0;
#X connect 154 0 9 0;
#X connect 154 0 10 0;
#X connect 155 0 9 0;
#X connect 155 0 10 0;
#X connect 156 0 9 0;
#X connect 156 0 10 0;
#X connect 157 0 9 0;
#X connect 157 0 10 0;
#X connect 158 0 159 1;
#X connect 159 0 146 0;
#X connect 160 0 148 0;
#X connect 161 0 160 1;
#X connect 162 0 6 0;
#X connect 162 0 31 0;
#X connect 162 0 103 0;
#X connect 162 0 111 0;
#X connect 162 0 119 0;
#X connect 162 0 127 0;
#X connect 162 0 135 0;
#X connect 162 0 4 0;
#X connect 162 0 19 0;
#X connect 162 0 85 0;
#X connect 162 0 87 0;
#X connect 162 0 91 0;
#X connect 162 0 92 0;
#X connect 162 0 102 0;
#X connect 163 0 40 0;
#X connect 164 0 163 1;
#X connect 165 0 5 0;
#X connect 166 0 39 0;
#X connect 167 0 166 1;
#X connect 168 0 36 0;
#X connect 169 0 143 0;
#X connect 170 0 169 1;
#X connect 171 0 144 0;
#X connect 172 0 147 0;
#X connect 173 0 145 0;
#X connect 174 0 150 0;
#X connect 175 0 174 1;
#X connect 176 0 149 0;
#X connect 177 0 152 0;
#X connect 178 0 177 1;
#X connect 179 0 180 0;
#X connect 180 0 151 0;
