#N canvas 827 239 527 327 12;
#X obj 878 891 dac~, f 5;
#X obj 883 775 gain~ 1 0 20 0 1;
#A saved;
#X obj 53 1412 free.rev~;
#X obj 53 1087 bng 25 250 50 0 empty empty empty 17 7 0 10 #e4e4e4 #4d4d4d #373737;
#X obj 190 1605 *~, f 5;
#X obj 218 1343 vsl 19 128 0 1 0 0 empty empty empty 0 -9 0 10 #000000 #00dbf2 #373737 0 1;
#X msg 206 1539 \$1 50, f 6;
#X obj 206 1564 line, f 7;
#X obj 153 1048 tgl 25 0 empty empty empty 17 7 0 10 #000000 #00dbf2 #373737 0 1;
#X obj 130 1156 spigot;
#X obj 148 1200 hsl 128 15 0 0.99 0 1 empty empty empty 20 8 0 10 #000000 #00dbf2 #000000 0 0;
#X obj 163 1317 hsl 128 15 0 1 0 1 empty empty empty 20 8 0 10 #dcdcdc #000000 #000000 10437 0;
#X msg 143 1347 wet \$1, f 7;
#X msg 128 1289 damp \$1, f 9;
#X obj 163 1265 hsl 128 15 0 1 0 1 empty empty empty 20 8 0 10 #dcdcdc #000000 #000000 2106 0;
#X msg 143 1377 clear, f 6;
#X msg 128 1229 decay \$1, f 9;
#X obj 22 190 table voice1;
#X msg 22 52 symbol ./vocal_samples/SC_VH_88_vocals_harmonies_two_part_Abmin.wav, f 50;
#X obj 22 135 soundfiler;
#X obj 53 1126 tabplay~ voice1, f 14;
#X msg 22 101 read -resize \$1 voice1;
#X obj 22 7 loadbang;
#X msg 435 103 read -resize \$1 drum_lo;
#X obj 435 135 table drum_lo;
#X msg 435 52 symbol ./drum_samples/DjembeWood05.wav, f 22;
#X text 143 1452 voice gain, f 9;
#X obj 88 400 tabplay~ drum_lo;
#X obj 88 353 bng 25 250 50 0 empty empty empty 17 7 0 10 #e4e4e4 #4d4d4d #373737;
#X floatatom 211 402 8 0 0 0 - - - 0;
#X msg 604 22 symbol ./drum_samples/KVCL_Oneshot_Djembe_04.wav, f 22;
#X msg 604 103 read -resize \$1 drum_lo2;
#X obj 604 135 table drum_lo2;
#X msg 773 7 symbol ./drum_samples/MB_RHD_percussion_one_shot_reamped_djembe_mid.wav, f 22;
#X msg 773 103 read -resize \$1 drum_mid;
#X obj 773 135 table drum_mid;
#X msg 1144 103 read -resize \$1 drum_smack;
#X obj 1144 135 table drum_smack;
#X msg 1144 37 symbol ./drum_samples/SO_WP_perc_bass_djembe_hard_smack.wav, f 22;
#X msg 954 7 symbol ./drum_samples/MB_LDB_perc_one_shot_acoustic_djembe_metalic.wav, f 22;
#X msg 954 103 read -resize \$1 drum_mid2;
#X obj 954 135 table drum_mid2;
#X msg 1339 22 symbol ./drum_samples/Drums_OneShots_WoodblockDrumMachine_02.wav, f 22;
#X msg 1339 100 read -resize \$1 drum_tic;
#X obj 1339 132 table drum_tic;
#X obj 267 353 bng 25 250 50 0 empty empty empty 17 7 0 10 #e4e4e4 #4d4d4d #373737;
#X floatatom 390 402 8 0 0 0 - - - 0;
#X obj 267 400 tabplay~ drum_lo2;
#X obj 442 355 bng 25 250 50 0 empty empty empty 17 7 0 10 #e4e4e4 #4d4d4d #373737;
#X floatatom 574 402 8 0 0 0 - - - 0;
#X obj 442 402 tabplay~ drum_mid;
#X obj 811 356 bng 25 250 50 0 empty empty empty 17 7 0 10 #e4e4e4 #4d4d4d #373737;
#X floatatom 958 403 8 0 0 0 - - - 0;
#X obj 1012 356 bng 25 250 50 0 empty empty empty 17 7 0 10 #e4e4e4 #4d4d4d #373737;
#X floatatom 1144 403 8 0 0 0 - - - 0;
#X obj 626 355 bng 25 250 50 0 empty empty empty 17 7 0 10 #e4e4e4 #4d4d4d #373737;
#X floatatom 758 402 8 0 0 0 - - - 0;
#X obj 626 402 tabplay~ drum_mid2;
#X obj 811 403 tabplay~ drum_smack;
#X obj 1012 403 tabplay~ drum_tic;
#X obj 132 328 knob 50 100 5000 0 1000 empty empty #E4E4E4 #B7B7B7 #4D4D4D 1 0 0 0 1 270 0 0 100;
#X obj 373 327 knob 50 100 10000 0 3000 empty empty #E4E4E4 #B7B7B7 #4D4D4D 1 0 0 0 1 270 0 0 100;
#X obj 562 327 knob 50 100 10000 0 5000 empty empty #E4E4E4 #B7B7B7 #4D4D4D 1 0 0 0 1 270 0 0 100;
#X obj 739 327 knob 50 100 10000 0 5000 empty empty #E4E4E4 #B7B7B7 #4D4D4D 1 0 0 0 1 270 0 0 100;
#X obj 936 331 knob 50 100 10000 0 6000 empty empty #E4E4E4 #B7B7B7 #4D4D4D 1 0 0 0 1 270 0 0 100;
#X obj 1130 327 knob 50 100 10000 0 8000 empty empty #E4E4E4 #B7B7B7 #4D4D4D 1 0 0 0 1 270 0 0 100;
#X obj 936 787 receive~ rev_voice;
#X obj 190 1643 send~ rev_voice;
#X msg 185 622 wet \$1;
#X msg 185 521 damp \$1;
#X msg 112 525 decay \$1;
#X obj 185 564 knob 50 0 1 0 0.3 empty empty #E4E4E4 #B7B7B7 #4D4D4D 1 0 0 0 1 270 0 0 1;
#X obj 185 468 knob 50 0 1 0 0.3 empty empty #E4E4E4 #B7B7B7 #4D4D4D 1 0 0 0 1 270 0 0 1;
#X obj 112 468 knob 50 0 1 0 0 empty empty #E4E4E4 #B7B7B7 #4D4D4D 1 0 0 0 1 270 0 0 1;
#X msg 364 624 wet \$1;
#X msg 364 523 damp \$1;
#X msg 291 527 decay \$1;
#X obj 364 566 knob 50 0 1 0 0.3 empty empty #E4E4E4 #B7B7B7 #4D4D4D 1 0 0 0 1 270 0 0 1;
#X obj 364 470 knob 50 0 1 0 0.3 empty empty #E4E4E4 #B7B7B7 #4D4D4D 1 0 0 0 1 270 0 0 1;
#X obj 291 470 knob 50 0 1 0 0 empty empty #E4E4E4 #B7B7B7 #4D4D4D 1 0 0 0 1 270 0 0 1;
#X msg 530 622 wet \$1;
#X msg 530 521 damp \$1;
#X msg 457 525 decay \$1;
#X obj 530 564 knob 50 0 1 0 0.3 empty empty #E4E4E4 #B7B7B7 #4D4D4D 1 0 0 0 1 270 0 0 1;
#X obj 530 468 knob 50 0 1 0 0.3 empty empty #E4E4E4 #B7B7B7 #4D4D4D 1 0 0 0 1 270 0 0 1;
#X obj 457 468 knob 50 0 1 0 0 empty empty #E4E4E4 #B7B7B7 #4D4D4D 1 0 0 0 1 270 0 0 1;
#X msg 723 623 wet \$1;
#X msg 723 522 damp \$1;
#X msg 650 526 decay \$1;
#X obj 723 565 knob 50 0 1 0 0.3 empty empty #E4E4E4 #B7B7B7 #4D4D4D 1 0 0 0 1 270 0 0 1;
#X obj 723 469 knob 50 0 1 0 0.3 empty empty #E4E4E4 #B7B7B7 #4D4D4D 1 0 0 0 1 270 0 0 1;
#X obj 650 469 knob 50 0 1 0 0 empty empty #E4E4E4 #B7B7B7 #4D4D4D 1 0 0 0 1 270 0 0 1;
#X msg 908 622 wet \$1;
#X msg 908 521 damp \$1;
#X msg 835 525 decay \$1;
#X obj 908 564 knob 50 0 1 0 0.3 empty empty #E4E4E4 #B7B7B7 #4D4D4D 1 0 0 0 1 270 0 0 1;
#X obj 908 468 knob 50 0 1 0 0.3 empty empty #E4E4E4 #B7B7B7 #4D4D4D 1 0 0 0 1 270 0 0 1;
#X obj 835 468 knob 50 0 1 0 0 empty empty #E4E4E4 #B7B7B7 #4D4D4D 1 0 0 0 1 270 0 0 1;
#X msg 1109 623 wet \$1;
#X msg 1109 522 damp \$1;
#X msg 1036 526 decay \$1;
#X obj 1109 565 knob 50 0 1 0 0.3 empty empty #E4E4E4 #B7B7B7 #4D4D4D 1 0 0 0 1 270 0 0 1;
#X obj 1109 469 knob 50 0 1 0 0.3 empty empty #E4E4E4 #B7B7B7 #4D4D4D 1 0 0 0 1 270 0 0 1;
#X obj 1036 469 knob 50 0 1 0 0 empty empty #E4E4E4 #B7B7B7 #4D4D4D 1 0 0 0 1 270 0 0 1;
#X obj 385 231 knob 50 0 1 0 0.7 empty empty #000000 #00dbf2 #004f4e 1 0 0 0 1 270 0 0 1;
#X obj 267 434 lop~ 3000, f 19;
#X obj 442 436 lop~ 5000, f 19;
#X obj 626 436 lop~ 5000, f 19;
#X obj 811 437 lop~ 6000, f 19;
#X obj 1012 437 lop~ 8000, f 19;
#X obj 94 659 free.rev~ 0 0.3 0 0;
#X obj 267 659 free.rev~ 0 0.3 0 0;
#X obj 433 657 free.rev~ 0 0.3 0 0;
#X obj 626 658 free.rev~ 0 0.3 0 0;
#X obj 811 657 free.rev~ 0 0.3 0 0;
#X obj 1012 658 free.rev~ 0 0.3 0 0;
#X obj 614 231 knob 50 0 1 0 0.3 empty empty #000000 #00dbf2 #004f4e 1 0 0 0 1 270 0 0 1;
#X text 446 230 rev decay [all drums];
#X text 678 224 rev wet [all drums];
#X msg 1522 22 symbol ./drum_samples/_X10_GBB_perc_accessories.wav, f 22;
#X msg 1522 96 read -resize \$1 perc_hihuh;
#X obj 1522 128 table perc_hihuh;
#X msg 1702 14 symbol ./drum_samples/_X10_GBB_perc_pitcher.wav, f 22;
#X msg 1702 95 read -resize \$1 perc_pitcher;
#X obj 1702 127 table perc_pitcher;
#X msg 2095 14 symbol ./drum_samples/aoe_percussion_one_shot_woodblock_low_rough_pip.wav, f 22;
#X msg 2095 95 read -resize \$1 perc_lo;
#X msg 2264 14 symbol ./drum_samples/DS_PCH_percussion_snap_stars.wav, f 22;
#X msg 2264 95 read -resize \$1 perc_snaps;
#X obj 2264 127 table perc_snaps;
#X msg 2459 14 symbol ./drum_samples/RARE_percussion_block_scrape_oneshot2.wav, f 22;
#X msg 2459 92 read -resize \$1 perc_marble;
#X obj 2459 124 table perc_marble;
#X msg 1885 14 symbol ./drum_samples/Zenhiser_UPTDK_165_Woodblock_-_Wet.wav, f 22;
#X msg 1885 95 read -resize \$1 perc_pubumwa;
#X obj 1885 127 table perc_pubumwa;
#X obj 1226 334 bng 25 250 50 0 empty empty empty 17 7 0 10 #e4e4e4 #4d4d4d #373737;
#X floatatom 1399 606 8 0 0 0 - - - 0;
#X obj 1399 543 knob 50 100 10000 0 8000 empty empty #E4E4E4 #B7B7B7 #4D4D4D 1 0 0 0 1 270 0 0 100;
#X msg 1323 601 wet \$1;
#X msg 1323 500 damp \$1;
#X msg 1250 504 decay \$1;
#X obj 1323 543 knob 50 0 1 0 0.3 empty empty #E4E4E4 #B7B7B7 #4D4D4D 1 0 0 0 1 270 0 0 1;
#X obj 1323 447 knob 50 0 1 0 0.3 empty empty #E4E4E4 #B7B7B7 #4D4D4D 1 0 0 0 1 270 0 0 1;
#X obj 1250 447 knob 50 0 1 0 0 empty empty #E4E4E4 #B7B7B7 #4D4D4D 1 0 0 0 1 270 0 0 1;
#X obj 1226 636 free.rev~ 0 0.3 0 0;
#X obj 1226 381 tabplay~ perc_hihuh;
#X obj 1226 671 lowpass~ 8000;
#X floatatom 1463 606 8 0 0 0 - - - 0;
#X obj 1463 543 knob 50 0.1 5 0 0 empty empty #E4E4E4 #B7B7B7 #4D4D4D 1 0 0 0 1 270 0 0 5;
#X obj 1524 331 bng 25 250 50 0 empty empty empty 17 7 0 10 #e4e4e4 #4d4d4d #373737;
#X msg 1621 598 wet \$1;
#X msg 1621 497 damp \$1;
#X msg 1548 501 decay \$1;
#X obj 1621 540 knob 50 0 1 0 0.3 empty empty #E4E4E4 #B7B7B7 #4D4D4D 1 0 0 0 1 270 0 0 1;
#X obj 1621 444 knob 50 0 1 0 0.3 empty empty #E4E4E4 #B7B7B7 #4D4D4D 1 0 0 0 1 270 0 0 1;
#X obj 1548 444 knob 50 0 1 0 0 empty empty #E4E4E4 #B7B7B7 #4D4D4D 1 0 0 0 1 270 0 0 1;
#X obj 1524 633 free.rev~ 0 0.3 0 0;
#X obj 1524 378 tabplay~ perc_pitcher;
#X obj 1713 331 bng 25 250 50 0 empty empty empty 17 7 0 10 #e4e4e4 #4d4d4d #373737;
#X msg 1810 598 wet \$1;
#X msg 1810 497 damp \$1;
#X msg 1737 501 decay \$1;
#X obj 1810 540 knob 50 0 1 0 0.3 empty empty #E4E4E4 #B7B7B7 #4D4D4D 1 0 0 0 1 270 0 0 1;
#X obj 1810 444 knob 50 0 1 0 0.3 empty empty #E4E4E4 #B7B7B7 #4D4D4D 1 0 0 0 1 270 0 0 1;
#X obj 1737 444 knob 50 0 1 0 0 empty empty #E4E4E4 #B7B7B7 #4D4D4D 1 0 0 0 1 270 0 0 1;
#X obj 1713 633 free.rev~ 0 0.3 0 0;
#X obj 1713 378 tabplay~ perc_pubumwa;
#X obj 1896 328 bng 25 250 50 0 empty empty empty 17 7 0 10 #e4e4e4 #4d4d4d #373737;
#X msg 1993 595 wet \$1;
#X msg 1993 494 damp \$1;
#X msg 1920 498 decay \$1;
#X obj 1993 537 knob 50 0 1 0 0.3 empty empty #E4E4E4 #B7B7B7 #4D4D4D 1 0 0 0 1 270 0 0 1;
#X obj 1993 441 knob 50 0 1 0 0.3 empty empty #E4E4E4 #B7B7B7 #4D4D4D 1 0 0 0 1 270 0 0 1;
#X obj 1920 441 knob 50 0 1 0 0 empty empty #E4E4E4 #B7B7B7 #4D4D4D 1 0 0 0 1 270 0 0 1;
#X obj 1896 630 free.rev~ 0 0.3 0 0;
#X obj 2076 328 bng 25 250 50 0 empty empty empty 17 7 0 10 #e4e4e4 #4d4d4d #373737;
#X msg 2173 595 wet \$1;
#X msg 2173 494 damp \$1;
#X msg 2100 498 decay \$1;
#X obj 2173 537 knob 50 0 1 0 0.3 empty empty #E4E4E4 #B7B7B7 #4D4D4D 1 0 0 0 1 270 0 0 1;
#X obj 2173 441 knob 50 0 1 0 0.3 empty empty #E4E4E4 #B7B7B7 #4D4D4D 1 0 0 0 1 270 0 0 1;
#X obj 2100 441 knob 50 0 1 0 0 empty empty #E4E4E4 #B7B7B7 #4D4D4D 1 0 0 0 1 270 0 0 1;
#X obj 2076 630 free.rev~ 0 0.3 0 0;
#X obj 2249 328 bng 25 250 50 0 empty empty empty 17 7 0 10 #e4e4e4 #4d4d4d #373737;
#X msg 2346 595 wet \$1;
#X msg 2346 494 damp \$1;
#X msg 2273 498 decay \$1;
#X obj 2346 537 knob 50 0 1 0 0.3 empty empty #E4E4E4 #B7B7B7 #4D4D4D 1 0 0 0 1 270 0 0 1;
#X obj 2346 441 knob 50 0 1 0 0.3 empty empty #E4E4E4 #B7B7B7 #4D4D4D 1 0 0 0 1 270 0 0 1;
#X obj 2273 441 knob 50 0 1 0 0 empty empty #E4E4E4 #B7B7B7 #4D4D4D 1 0 0 0 1 270 0 0 1;
#X obj 2249 630 free.rev~ 0 0.3 0 0;
#X obj 1896 375 tabplay~ perc_lo;
#X obj 2095 127 table perc_lo;
#X obj 2076 375 tabplay~ perc_snaps;
#X obj 2249 375 tabplay~ perc_marble;
#X obj 483 1669 send~ violin;
#X obj 483 1636 *~;
#X obj 434 1484 vsl 17 128 0 1 0 0 empty empty empty 0 -9 0 10 #000000 #00dbf2 #373737 0 1;
#X obj 664 833 receive~ violin;
#X obj 596 1181 noise~;
#X obj 596 1214 *~;
#X obj 719 1118 delay 20;
#X msg 719 1145 0 20;
#X msg 665 1145 1 20;
#X obj 665 1181 vline~;
#X obj 799 1173 mtof;
#X obj 799 1200 expr 1000 / $f1;
#X floatatom 799 1226 5 0 0 0 - - - 12;
#X obj 799 1323 lop~ 10000;
#X obj 799 1289 *~ 0.99;
#X obj 800 1374 *~ 0.25;
#X obj 706 1049 bng 25 250 50 0 empty empty empty 17 7 0 10 #e4e4e4 #4d4d4d #373737;
#X obj 706 1084 t b b b;
#X obj 596 1374 delwrite~ violin 500;
#X obj 799 1258 delread4~ violin 100;
#X obj 483 1603 free.rev~;
#X obj 684 1438 hsl 128 15 0 0.99 0 1 empty empty empty 20 8 0 10 #000000 #00dbf2 #000000 0 0;
#X obj 699 1624 hsl 128 15 0 1 0 1 empty empty empty 20 8 0 10 #dcdcdc #000000 #000000 7341 0;
#X msg 664 1650 wet \$1, f 7;
#X msg 664 1529 damp \$1, f 9;
#X obj 699 1505 hsl 128 15 0 1 0 1 empty empty empty 20 8 0 10 #dcdcdc #000000 #000000 0 0;
#X obj 699 1564 hsl 128 15 0 1 0 1 empty empty empty 20 8 0 10 #dcdcdc #000000 #000000 12700 0;
#X msg 664 1589 width \$1, f 9;
#X msg 664 1469 decay \$1, f 9;
#X msg 475 995 1;
#X obj 799 1078 hradio 20 1 0 8 empty empty empty 0 -8 0 10 #e4e4e4 #4d4d4d #373737 0;
#X obj 861 984 + 1;
#X obj 799 984 int;
#X msg 799 1144 56;
#X msg 839 1144 63;
#X obj 472 1181 metro 680, f 10;
#X msg 617 994 170;
#X obj 981 1078 hradio 20 1 0 8 empty empty empty 0 -8 0 10 #e4e4e4 #4d4d4d #373737 0;
#X obj 522 1040 vsl 20 128 0 680 0 0 empty empty empty 0 -9 0 10 #000000 #00dbf2 #373737 0 1;
#X floatatom 547 1181 5 0 0 0 - - - 12;
#X obj 799 1013 % 8;
#X obj 799 1108 sel 0 1 2 3 4 5 6 7;
#X obj 407 1067 gate;
#X obj 472 1112 tgl 25 0 empty empty empty 17 7 0 10 #000000 #00dbf2 #373737 0 1;
#X obj 53 1048 sel 1, f 8;
#X obj 407 1032 tgl 25 0 empty empty empty 17 7 0 10 #e4e4e4 #4d4d4d #373737 0 1;
#X msg 86 1079 stop;
#X msg 569 994 340;
#X msg 519 995 680;
#X obj 1159 1078 hradio 20 1 0 8 empty empty empty 0 -8 0 10 #e4e4e4 #4d4d4d #373737 0;
#X obj 997 926 sel 0 1 2;
#X obj 943 1244 vsl 17 128 200 10000 0 0 empty empty empty 0 -9 0 10 #000000 #00dbf2 #373737 0 1;
#X floatatom 939 1378 5 0 0 0 - - - 12;
#X msg 939 1199 4000;
#X obj 939 1173 loadbang;
#X obj 981 1106 sel 0 1 2 3 4 5 6 7;
#X obj 1159 1107 sel 0 1 2 3 4 5 6 7;
#X msg 981 1144 66;
#X msg 1056 1144 61;
#X msg 1093 1143 63;
#X msg 706 994 0;
#X msg 1159 1143 68;
#X msg 1197 1143 63;
#X msg 1234 1143 56;
#X msg 1270 1143 68;
#X msg 1308 1143 63;
#X msg 1345 1143 56;
#X msg 1383 1143 63;
#X msg 1420 1143 56;
#X msg 997 1201 2700;
#X obj 981 1049 spigot;
#X obj 1159 1049 spigot;
#X obj 799 1049 spigot;
#X obj 997 891 hradio 20 1 0 3 empty empty empty 0 -8 0 10 #000000 #00dbf2 #373737 0;
#X msg 925 1004 1;
#X msg 1051 1004 0;
#X msg 1195 1004 0;
#X msg 1168 1004 1;
#X msg 951 1004 0;
#X msg 1022 1004 1;
#X obj 944 965 bng 25 250 50 0 empty empty empty 17 7 0 10 #e4e4e4 #4d4d4d #373737;
#X obj 1007 963 bng 25 250 50 0 empty empty empty 17 7 0 10 #e4e4e4 #4d4d4d #373737;
#X obj 1077 960 bng 25 250 50 0 empty empty empty 17 7 0 10 #e4e4e4 #4d4d4d #373737;
#X text 971 1444 when holding a sound \, raise the hand to raise volume;
#X floatatom 294 1519 5 0 0 0 - - - 12;
#X floatatom 300 1229 5 0 0 0 - - - 12;
#X obj 300 1261 expr -0.92 * $f1 + 1;
#X floatatom 508 1434 5 0 0 0 - - - 12;
#X floatatom 461 1547 5 0 0 0 - - - 12;
#X obj 508 1469 expr -0.8 * $f1 + 1;
#X obj 2048 804 oscparse;
#X obj 2048 913 print TEST;
#X obj 2133 913 print NOTE;
#X obj 2048 835 list trim;
#X obj 2048 775 netreceive -u -b 8000;
#X obj 2048 866 route test note params;
#X obj 2380 874 print OTHER;
#X obj 997 833 loadbang;
#X msg 999 858 0;
#X obj 267 311 r p1;
#X obj 2207 1306 s p2;
#X obj 2234 1569 s p3;
#X obj 2080 1511 s p4;
#X obj 2309 1067 s p5;
#X obj 446 312 r p2;
#X obj 1515 291 r p3;
#X obj 1226 291 r p4;
#X obj 1628 262 r p5;
#X obj 519 965 loadbang;
#X obj 2133 1169 s p1;
#X obj 217 946 loadbang;
#X msg 217 984 0;
#X msg 249 984 1;
#X obj 2227 913 route p1 p2 p3 p4 p5 p6 p7 p8 p9 p10 p11;
#X floatatom 2329 979 5 0 0 0 - - - 12;
#X floatatom 2350 1096 5 0 0 0 - - - 12;
#X floatatom 2370 1234 5 0 0 0 - - - 12;
#X floatatom 2390 1340 5 0 0 0 - - - 12;
#X floatatom 2412 1450 5 0 0 0 - - - 12;
#X floatatom 2432 946 4 0 0 0 - - - 12;
#X text 2472 944 range tends to be: 250-800;
#X floatatom 2432 1006 5 0 0 0 - - - 12;
#X obj 2432 1036 s p11;
#X obj 191 1167 r p11;
#X obj 670 1404 r p11;
#X obj 2432 977 expr ($f1 - 200) / 800;
#X obj 2412 1398 expr 1- $f1;
#X obj 2329 1038 s p6;
#X obj 2350 1150 s p7;
#X obj 2370 1259 s p8;
#X obj 2390 1366 s p9;
#X obj 2412 1477 s p10;
#X text 972 1473 when decay is maxed \, to end \, lower the decay again;
#X obj 284 1359 r p6;
#X obj 284 1419 line;
#X msg 284 1388 \$1 800;
#X obj 664 898 r p7;
#X obj 703 898 r p8;
#X obj 743 898 r p9;
#X msg 434 1404 \$1 800;
#X msg 756 951 2;
#X obj 743 924 t f b;
#X obj 703 926 t f b;
#X obj 664 926 t f b;
#X msg 716 951 1;
#X msg 677 951 0;
#X obj 456 749 r p10;
#X obj 523 926 sel 0 1 2;
#X obj 523 870 int;
#X obj 523 898 % 3;
#X obj 569 870 + 1;
#X obj 456 777 bng 25 250 50 0 empty empty empty 17 7 0 10 #e4e4e4 #4d4d4d #373737;
#X obj 545 163 loadbang;
#X msg 545 190 0.7;
#X msg 589 191 0.3;
#X obj 2350 1067 expr 0.8 - $f1;
#X obj 2329 1009 clip 0 1;
#X obj 2350 1122 clip 0 1;
#X obj 2370 1207 clip 0 1;
#X obj 2329 946 expr 0.8 - $f1;
#X obj 2370 1177 expr 0.8 - $f1;
#X obj 2390 1289 expr 0.8 - $f1;
#X obj 2390 1313 clip 0 1;
#X obj 2412 1425 clip 0 1;
#X obj 434 1434 line;
#X obj 456 848 del 1000;
#X obj 523 846 spigot;
#X msg 548 806 0;
#X msg 584 806 1;
#X obj 456 815 t b b b;
#X obj 88 434 lop~ 2000, f 19;
#X obj 2173 1009 realtime;
#X obj 547 1206 s beat;
#X obj 2198 1038 r beat;
#X obj 2133 1141 delay;
#X obj 2173 1067 % 170;
#X obj 2173 1096 < 20;
#X obj 2157 970 t b b;
#X obj 2247 1133 realtime;
#X obj 2272 1162 r beat;
#X obj 2207 1265 delay;
#X obj 2247 1191 % 170;
#X obj 2247 1220 < 20;
#X obj 2231 1094 t b b;
#X obj 2120 1352 realtime;
#X obj 2080 1484 delay;
#X obj 2120 1410 % 170;
#X obj 2120 1439 < 20;
#X obj 2104 1313 t b b;
#X obj 2274 1406 realtime;
#X obj 2299 1435 r beat;
#X obj 2234 1538 delay;
#X obj 2274 1464 % 170;
#X obj 2274 1493 < 20;
#X obj 2258 1367 t b b;
#X obj 2121 1517 bng 25 250 50 0 empty empty empty 17 7 0 10 #e4e4e4 #4d4d4d #373737;
#X obj 2316 1548 bng 25 250 50 0 empty empty empty 17 7 0 10 #e4e4e4 #4d4d4d #373737;
#X connect 1 0 0 0;
#X connect 1 0 0 1;
#X connect 2 0 4 0;
#X connect 3 0 20 0;
#X connect 3 0 225 0;
#X connect 3 0 256 0;
#X connect 4 0 67 0;
#X connect 5 0 6 0;
#X connect 5 0 280 0;
#X connect 6 0 7 0;
#X connect 7 0 4 1;
#X connect 8 0 9 1;
#X connect 8 0 3 0;
#X connect 8 0 240 0;
#X connect 9 0 3 0;
#X connect 10 0 16 0;
#X connect 10 0 281 0;
#X connect 11 0 12 0;
#X connect 12 0 2 0;
#X connect 13 0 2 0;
#X connect 14 0 13 0;
#X connect 15 0 2 0;
#X connect 16 0 2 0;
#X connect 18 0 21 0;
#X connect 20 0 2 0;
#X connect 20 1 9 0;
#X connect 21 0 19 0;
#X connect 22 0 18 0;
#X connect 22 0 25 0;
#X connect 22 0 30 0;
#X connect 22 0 33 0;
#X connect 22 0 39 0;
#X connect 22 0 42 0;
#X connect 22 0 38 0;
#X connect 22 0 119 0;
#X connect 22 0 122 0;
#X connect 22 0 133 0;
#X connect 22 0 125 0;
#X connect 22 0 127 0;
#X connect 22 0 130 0;
#X connect 23 0 19 0;
#X connect 25 0 23 0;
#X connect 27 0 366 0;
#X connect 28 0 27 0;
#X connect 29 0 366 1;
#X connect 30 0 31 0;
#X connect 31 0 19 0;
#X connect 33 0 34 0;
#X connect 34 0 19 0;
#X connect 36 0 19 0;
#X connect 38 0 36 0;
#X connect 39 0 40 0;
#X connect 40 0 19 0;
#X connect 42 0 43 0;
#X connect 43 0 19 0;
#X connect 45 0 47 0;
#X connect 46 0 105 1;
#X connect 47 0 105 0;
#X connect 48 0 50 0;
#X connect 49 0 106 1;
#X connect 50 0 106 0;
#X connect 51 0 58 0;
#X connect 52 0 108 1;
#X connect 53 0 59 0;
#X connect 54 0 109 1;
#X connect 55 0 57 0;
#X connect 56 0 107 1;
#X connect 57 0 107 0;
#X connect 58 0 108 0;
#X connect 59 0 109 0;
#X connect 60 0 29 0;
#X connect 61 0 46 0;
#X connect 62 0 49 0;
#X connect 63 0 56 0;
#X connect 64 0 52 0;
#X connect 65 0 54 0;
#X connect 66 0 1 0;
#X connect 68 0 110 0;
#X connect 69 0 110 0;
#X connect 70 0 110 0;
#X connect 71 0 68 0;
#X connect 72 0 69 0;
#X connect 73 0 70 0;
#X connect 74 0 111 0;
#X connect 75 0 111 0;
#X connect 76 0 111 0;
#X connect 77 0 74 0;
#X connect 78 0 75 0;
#X connect 79 0 76 0;
#X connect 80 0 112 0;
#X connect 81 0 112 0;
#X connect 82 0 112 0;
#X connect 83 0 80 0;
#X connect 84 0 81 0;
#X connect 85 0 82 0;
#X connect 86 0 113 0;
#X connect 87 0 113 0;
#X connect 88 0 113 0;
#X connect 89 0 86 0;
#X connect 90 0 87 0;
#X connect 91 0 88 0;
#X connect 92 0 114 0;
#X connect 93 0 114 0;
#X connect 94 0 114 0;
#X connect 95 0 92 0;
#X connect 96 0 93 0;
#X connect 97 0 94 0;
#X connect 98 0 115 0;
#X connect 99 0 115 0;
#X connect 100 0 115 0;
#X connect 101 0 98 0;
#X connect 102 0 99 0;
#X connect 103 0 100 0;
#X connect 104 0 73 0;
#X connect 104 0 79 0;
#X connect 104 0 85 0;
#X connect 104 0 91 0;
#X connect 104 0 97 0;
#X connect 104 0 103 0;
#X connect 104 0 144 0;
#X connect 104 0 156 0;
#X connect 104 0 165 0;
#X connect 104 0 174 0;
#X connect 104 0 182 0;
#X connect 104 0 190 0;
#X connect 105 0 111 0;
#X connect 106 0 112 0;
#X connect 107 0 113 0;
#X connect 108 0 114 0;
#X connect 109 0 115 0;
#X connect 110 0 1 0;
#X connect 111 0 1 0;
#X connect 112 0 1 0;
#X connect 113 0 1 0;
#X connect 114 0 1 0;
#X connect 115 0 1 0;
#X connect 116 0 101 0;
#X connect 116 0 95 0;
#X connect 116 0 89 0;
#X connect 116 0 83 0;
#X connect 116 0 77 0;
#X connect 116 0 71 0;
#X connect 116 0 143 0;
#X connect 116 0 155 0;
#X connect 116 0 164 0;
#X connect 116 0 173 0;
#X connect 116 0 181 0;
#X connect 116 0 189 0;
#X connect 119 0 120 0;
#X connect 120 0 19 0;
#X connect 122 0 123 0;
#X connect 123 0 19 0;
#X connect 125 0 126 0;
#X connect 126 0 19 0;
#X connect 127 0 128 0;
#X connect 128 0 19 0;
#X connect 130 0 131 0;
#X connect 131 0 19 0;
#X connect 133 0 134 0;
#X connect 134 0 19 0;
#X connect 136 0 146 0;
#X connect 137 0 147 1;
#X connect 138 0 137 0;
#X connect 139 0 145 0;
#X connect 140 0 145 0;
#X connect 141 0 145 0;
#X connect 142 0 139 0;
#X connect 143 0 140 0;
#X connect 144 0 141 0;
#X connect 145 0 147 0;
#X connect 146 0 145 0;
#X connect 147 0 1 0;
#X connect 148 0 147 2;
#X connect 149 0 148 0;
#X connect 150 0 158 0;
#X connect 151 0 157 0;
#X connect 152 0 157 0;
#X connect 153 0 157 0;
#X connect 154 0 151 0;
#X connect 155 0 152 0;
#X connect 156 0 153 0;
#X connect 157 0 1 0;
#X connect 158 0 157 0;
#X connect 159 0 167 0;
#X connect 160 0 166 0;
#X connect 161 0 166 0;
#X connect 162 0 166 0;
#X connect 163 0 160 0;
#X connect 164 0 161 0;
#X connect 165 0 162 0;
#X connect 166 0 1 0;
#X connect 167 0 166 0;
#X connect 168 0 192 0;
#X connect 169 0 175 0;
#X connect 170 0 175 0;
#X connect 171 0 175 0;
#X connect 172 0 169 0;
#X connect 173 0 170 0;
#X connect 174 0 171 0;
#X connect 175 0 1 0;
#X connect 176 0 194 0;
#X connect 177 0 183 0;
#X connect 178 0 183 0;
#X connect 179 0 183 0;
#X connect 180 0 177 0;
#X connect 181 0 178 0;
#X connect 182 0 179 0;
#X connect 183 0 1 0;
#X connect 184 0 195 0;
#X connect 185 0 191 0;
#X connect 186 0 191 0;
#X connect 187 0 191 0;
#X connect 188 0 185 0;
#X connect 189 0 186 0;
#X connect 190 0 187 0;
#X connect 191 0 1 0;
#X connect 192 0 175 0;
#X connect 194 0 183 0;
#X connect 195 0 191 0;
#X connect 197 0 196 0;
#X connect 198 0 197 1;
#X connect 198 0 284 0;
#X connect 199 0 1 0;
#X connect 200 0 201 0;
#X connect 201 0 214 0;
#X connect 202 0 203 0;
#X connect 203 0 205 0;
#X connect 204 0 205 0;
#X connect 205 0 201 1;
#X connect 206 0 207 0;
#X connect 207 0 208 0;
#X connect 208 0 215 0;
#X connect 209 0 211 0;
#X connect 209 0 214 0;
#X connect 210 0 209 0;
#X connect 211 0 216 0;
#X connect 212 0 213 0;
#X connect 213 0 204 0;
#X connect 213 1 202 0;
#X connect 213 2 228 0;
#X connect 215 0 210 0;
#X connect 216 0 197 0;
#X connect 217 0 224 0;
#X connect 217 0 283 0;
#X connect 218 0 219 0;
#X connect 219 0 216 0;
#X connect 220 0 216 0;
#X connect 221 0 220 0;
#X connect 222 0 223 0;
#X connect 223 0 216 0;
#X connect 224 0 216 0;
#X connect 225 0 238 1;
#X connect 226 0 237 0;
#X connect 227 0 228 1;
#X connect 228 0 227 0;
#X connect 228 0 236 0;
#X connect 229 0 206 0;
#X connect 230 0 206 0;
#X connect 231 0 212 0;
#X connect 232 0 234 0;
#X connect 233 0 251 0;
#X connect 234 0 231 1;
#X connect 234 0 235 0;
#X connect 235 0 368 0;
#X connect 236 0 268 0;
#X connect 236 0 266 0;
#X connect 236 0 267 0;
#X connect 237 0 229 0;
#X connect 237 7 230 0;
#X connect 238 0 239 0;
#X connect 239 0 231 0;
#X connect 239 0 241 0;
#X connect 240 0 3 0;
#X connect 240 1 242 0;
#X connect 241 0 238 0;
#X connect 242 0 20 0;
#X connect 243 0 234 0;
#X connect 244 0 234 0;
#X connect 245 0 252 0;
#X connect 246 0 276 0;
#X connect 246 1 277 0;
#X connect 246 2 278 0;
#X connect 247 0 209 1;
#X connect 247 0 248 0;
#X connect 249 0 247 0;
#X connect 250 0 249 0;
#X connect 251 0 253 0;
#X connect 251 3 254 0;
#X connect 251 4 255 0;
#X connect 252 0 257 0;
#X connect 252 1 258 0;
#X connect 252 2 259 0;
#X connect 252 3 260 0;
#X connect 252 4 261 0;
#X connect 252 5 262 0;
#X connect 252 6 263 0;
#X connect 252 7 264 0;
#X connect 253 0 206 0;
#X connect 254 0 206 0;
#X connect 255 0 206 0;
#X connect 257 0 206 0;
#X connect 258 0 206 0;
#X connect 259 0 206 0;
#X connect 260 0 206 0;
#X connect 261 0 206 0;
#X connect 262 0 206 0;
#X connect 263 0 206 0;
#X connect 264 0 206 0;
#X connect 265 0 247 0;
#X connect 266 0 233 0;
#X connect 267 0 245 0;
#X connect 268 0 226 0;
#X connect 269 0 246 0;
#X connect 270 0 268 1;
#X connect 271 0 266 1;
#X connect 272 0 267 1;
#X connect 273 0 267 1;
#X connect 274 0 268 1;
#X connect 275 0 266 1;
#X connect 276 0 270 0;
#X connect 276 0 271 0;
#X connect 276 0 272 0;
#X connect 277 0 274 0;
#X connect 277 0 275 0;
#X connect 277 0 272 0;
#X connect 278 0 274 0;
#X connect 278 0 271 0;
#X connect 278 0 273 0;
#X connect 281 0 282 0;
#X connect 283 0 285 0;
#X connect 286 0 289 0;
#X connect 289 0 291 0;
#X connect 290 0 286 0;
#X connect 291 0 287 0;
#X connect 291 1 288 0;
#X connect 291 2 309 0;
#X connect 291 3 292 0;
#X connect 293 0 294 0;
#X connect 294 0 269 0;
#X connect 295 0 45 0;
#X connect 300 0 55 0;
#X connect 301 0 150 0;
#X connect 302 0 136 0;
#X connect 304 0 244 0;
#X connect 306 0 307 0;
#X connect 306 0 308 0;
#X connect 307 0 5 0;
#X connect 307 0 198 0;
#X connect 308 0 8 0;
#X connect 308 0 241 0;
#X connect 309 0 373 0;
#X connect 309 1 379 0;
#X connect 309 2 390 0;
#X connect 309 3 384 0;
#X connect 309 4 299 0;
#X connect 309 5 355 0;
#X connect 309 6 351 0;
#X connect 309 7 356 0;
#X connect 309 8 357 0;
#X connect 309 9 322 0;
#X connect 309 10 315 0;
#X connect 310 0 352 0;
#X connect 311 0 353 0;
#X connect 312 0 325 0;
#X connect 313 0 326 0;
#X connect 314 0 327 0;
#X connect 315 0 321 0;
#X connect 317 0 318 0;
#X connect 319 0 10 0;
#X connect 320 0 217 0;
#X connect 321 0 317 0;
#X connect 322 0 359 0;
#X connect 329 0 331 0;
#X connect 330 0 5 0;
#X connect 331 0 330 0;
#X connect 332 0 339 0;
#X connect 333 0 338 0;
#X connect 334 0 337 0;
#X connect 335 0 360 0;
#X connect 336 0 269 0;
#X connect 337 0 335 0;
#X connect 337 1 336 0;
#X connect 338 0 335 0;
#X connect 338 1 340 0;
#X connect 339 0 335 0;
#X connect 339 1 341 0;
#X connect 340 0 269 0;
#X connect 341 0 269 0;
#X connect 342 0 347 0;
#X connect 343 0 244 0;
#X connect 343 1 243 0;
#X connect 343 2 232 0;
#X connect 344 0 345 0;
#X connect 344 0 346 0;
#X connect 345 0 343 0;
#X connect 346 0 344 1;
#X connect 347 0 365 0;
#X connect 348 0 349 0;
#X connect 348 0 350 0;
#X connect 349 0 104 0;
#X connect 350 0 116 0;
#X connect 351 0 311 0;
#X connect 352 0 323 0;
#X connect 353 0 324 0;
#X connect 354 0 312 0;
#X connect 355 0 310 0;
#X connect 356 0 354 0;
#X connect 357 0 358 0;
#X connect 358 0 313 0;
#X connect 359 0 314 0;
#X connect 360 0 198 0;
#X connect 361 0 364 0;
#X connect 362 0 344 0;
#X connect 363 0 362 1;
#X connect 364 0 362 1;
#X connect 365 0 361 0;
#X connect 365 1 363 0;
#X connect 365 2 362 0;
#X connect 366 0 110 0;
#X connect 367 0 371 0;
#X connect 369 0 371 1;
#X connect 370 0 305 0;
#X connect 371 0 372 0;
#X connect 372 0 370 1;
#X connect 373 0 370 0;
#X connect 373 1 367 1;
#X connect 374 0 377 0;
#X connect 375 0 377 1;
#X connect 376 0 296 0;
#X connect 377 0 378 0;
#X connect 378 0 376 1;
#X connect 379 0 376 0;
#X connect 379 1 374 1;
#X connect 380 0 382 0;
#X connect 381 0 298 0;
#X connect 381 0 391 0;
#X connect 382 0 383 0;
#X connect 383 0 381 1;
#X connect 384 0 381 0;
#X connect 384 1 380 1;
#X connect 385 0 388 0;
#X connect 386 0 388 1;
#X connect 387 0 297 0;
#X connect 388 0 389 0;
#X connect 389 0 387 1;
#X connect 390 0 387 0;
#X connect 390 1 385 1;
